<?xml version="1.0" encoding="UTF-8"?>
<svg width="77px" height="77px" viewBox="0 0 77 77" version="1.1" xmlns="http://www.w3.org/2000/svg" xmlns:xlink="http://www.w3.org/1999/xlink">
    <!-- Generator: Sketch 50.2 (55047) - http://www.bohemiancoding.com/sketch -->
    <title>220200</title>
    <desc>Created with Sketch.</desc>
    <defs></defs>
    <g id="Symbols" stroke="none" stroke-width="1" fill="none" fill-rule="evenodd">
        <g id="FOOTER" transform="translate(-1077.000000, -93.000000)" fill-rule="nonzero">
            <g id="220200" transform="translate(1078.000000, 94.000000)">
                <path d="M69.8276367,75 L5.17236328,75 C2.32763672,75 0,72.6723633 0,69.8276367 L0,5.17236328 C0,2.32763672 2.32763672,0 5.17236328,0 L69.8276367,0 C72.6723633,0 75,2.32763672 75,5.17236328 L75,69.8276367 C75,72.6723633 72.6723633,75 69.8276367,75" id="Shape" stroke="#00A0D2" stroke-width="2"></path>
                <path d="M64,13 L64,25.9168069 L52.2069375,25.9168069 C50.7656094,25.9168069 49.5862734,27.0793298 49.5862734,28.5001097 L49.5862734,36.2501646 L62.6897422,36.2501646 L62.6897422,49.1668252 L49.5862734,49.1668252 L49.5862734,75 L36.4828047,75 L36.4828047,49.1666789 L26,49.1666789 L26,36.2500183 L36.4828047,36.2500183 L36.4828047,28.4999634 C36.4828047,20.3624497 42.7723984,13.6458623 50.8965312,13 L64,13 Z" id="Shape" fill="#00A0D2"></path>
            </g>
        </g>
    </g>
</svg>