<?xml version="1.0" encoding="UTF-8"?>
<svg width="216px" height="244px" viewBox="0 0 216 244" version="1.1" xmlns="http://www.w3.org/2000/svg" xmlns:xlink="http://www.w3.org/1999/xlink">
    <!-- Generator: Sketch 50.2 (55047) - http://www.bohemiancoding.com/sketch -->
    <title>gfx</title>
    <desc>Created with Sketch.</desc>
    <defs></defs>
    <g id="Page-1" stroke="none" stroke-width="1" fill="none" fill-rule="evenodd">
        <g id="PRAWO-GOSPODARCZE" transform="translate(-924.000000, -996.000000)">
            <g id="gfx" transform="translate(924.000000, 996.000000)">
                <circle id="Oval-2" fill="#F22686" cx="147.5" cy="175.5" r="68.5"></circle>
                <rect id="Rectangle-5" fill="#272C44" x="0" y="0" width="158" height="187" rx="17"></rect>
                <g id="927385" transform="translate(1.000000, 0.000000)" fill="#D2D2D2" fill-rule="nonzero">
                    <path d="M124.435897,65.540553 L123.879058,65.540553 L116.175627,47.1929752 L116.175627,47.1012027 C116.560963,47.097561 116.948123,47.0928267 117.333094,47.0757104 C118.843055,47.0090661 120.013294,45.7337199 119.946882,44.2267574 C119.880105,42.7201591 118.608424,41.5613494 117.092259,41.6181609 C116.787201,41.6319996 116.481049,41.6352772 116.175627,41.6385548 L116.175627,40.5897264 C116.175627,39.080943 114.950653,37.8584024 113.438867,37.8584024 C111.927081,37.8584024 110.702108,39.080943 110.702108,40.5897264 L110.702108,41.1392688 C99.6032703,38.9312665 99.5846604,32.7675787 91.4670665,32.7675787 L90.9828425,32.7675787 C90.1209456,30.2817097 88.1388019,28.3147923 85.6403228,27.4695386 L85.6403228,25.731324 C85.6403228,24.2225406 84.4153492,23 82.9035632,23 C81.3917772,23 80.1668036,24.2225406 80.1668036,25.731324 L80.1668036,27.4695386 C77.6683245,28.3147923 75.685451,30.2828022 74.8235541,32.7697638 C74.5878279,32.8083665 70.3195776,32.3637069 66.4877493,35.615075 C64.0502087,37.6835977 60.3300401,40.0503809 55.3049846,41.0981168 L55.3049846,40.5919114 C55.3049846,39.0831281 54.080011,37.8605875 52.568225,37.8605875 C51.056439,37.8605875 49.8314654,39.0831281 49.8314654,40.5919114 L49.8314654,41.6502084 C48.3521556,41.6869903 47.1636721,42.8927788 47.1636721,44.3778907 C47.1636721,45.8630025 48.3517907,47.068791 49.8314654,47.1055729 L49.8314654,47.1944319 L42.1287642,65.540553 C41.9101884,65.5758781 40.2892969,65.2914562 38.9975463,66.6363602 C37.6835368,68.0034788 37.9323995,69.6393598 38.2659193,71.8032968 C38.7567115,74.69413 40.5990981,77.3092817 43.5693945,78.7401313 C44.9333955,79.389458 45.9832165,80.9761752 48.5824083,80.9761752 L56.5540417,80.9761752 C58.4507985,80.9761752 59.7950949,79.9557526 60.0450522,79.7514495 C60.7978436,79.135627 60.94052,79.0616992 61.6272642,78.710633 C65.4937582,76.8671714 66.9420514,73.4610283 67.1248669,69.2438641 C67.1752233,67.0846615 65.4890145,65.5409171 63.56489,65.5409171 L63.0076857,65.5409171 L55.3049846,47.1947961 L55.3049846,46.6470746 C62.4110721,45.4150654 67.4248158,41.9903493 70.0331301,39.7768844 C72.1280284,37.9993387 74.6294266,38.2571757 74.7899832,38.2327759 C75.6332701,40.7656237 77.6347536,42.7744214 80.1664387,43.6306004 L80.1664387,72.0112416 C74.7009473,72.3776031 71.1333075,77.9684412 73.145738,83.0720111 C69.7331813,84.0367147 67.2248498,87.1715463 67.2248498,90.8817768 C67.2248498,95.3582347 70.8742276,99 75.3592292,99 L90.6807042,99 C95.1660708,99 98.8147187,95.3578705 98.8147187,90.8817768 C98.8147187,87.0950692 96.2034851,83.9067037 92.6836473,83.0137429 C94.6479109,77.9170923 91.0762572,72.3757823 85.6399579,72.0112416 L85.6399579,43.6306004 C88.171643,42.7740572 90.1742212,40.7645311 91.0171432,38.2305908 C91.2109058,38.2604533 93.6148754,37.973118 95.7386009,39.7746993 C98.3757424,42.0125641 103.471589,45.4882649 110.701743,46.6853131 L110.701743,47.1937036 L102.998312,65.5412813 C102.779736,65.5766064 101.159574,65.2921846 99.8674589,66.6370885 C98.7380894,67.8122862 98.8756572,69.2795534 98.8818605,69.2431358 C98.8818605,73.9574009 101.104474,77.1337486 104.439307,78.7404955 C105.846731,79.4105803 106.864806,80.9765394 109.452321,80.9765394 L117.424319,80.9765394 C119.907107,80.9754468 120.760612,79.6094207 122.504475,78.7069912 C126.397971,76.8475059 127.834588,73.4490105 127.996969,69.2398582 C128.079437,67.2336097 126.468762,65.540553 124.435897,65.540553 Z M48.5524864,75.5182615 L48.5521215,75.5175332 C48.5546758,75.5175332 48.6320349,75.5859984 48.6320349,75.5859984 C48.6116004,75.5688821 48.5729209,75.5350137 48.5524864,75.5182615 Z M56.5719218,75.5270018 C56.5580556,75.5379271 56.5518523,75.5142556 56.552947,75.5131631 C44.8407106,75.4865782 50.5809726,75.9946044 45.8857878,73.7895155 C44.742917,73.2508985 43.9269977,72.2155446 43.6832437,71.0042934 L61.4521116,71.0042934 C60.9277484,73.6081556 58.8919642,73.5455173 56.5719218,75.5270018 Z M57.0725664,65.540553 L48.0631538,65.540553 L52.568225,54.8111841 L57.0725664,65.540553 Z M93.3408345,90.8810484 C93.3408345,92.3454023 92.1472425,93.5362595 90.6807042,93.5362595 L75.3595941,93.5362595 C73.8923261,93.5362595 72.6990989,92.3450381 72.6990989,90.8810484 C72.6990989,89.4170588 73.892691,88.2262015 75.3595941,88.2262015 C81.0498647,88.2262015 85.5833982,88.2262015 90.6807042,88.2262015 C92.1472425,88.2262015 93.3408345,89.417423 93.3408345,90.8810484 Z M87.7505469,80.1076142 C87.7505469,81.571968 86.5569548,82.7628252 85.0904166,82.7628252 L80.7163449,82.7628252 C79.2494418,82.7628252 78.0562146,81.5716038 78.0562146,80.1076142 C78.0562146,78.6436245 79.2498067,77.4527673 80.7163449,77.4527673 L85.0904166,77.4527673 C86.5569548,77.4527673 87.7505469,78.6436245 87.7505469,80.1076142 Z M82.9028334,38.6177105 C81.207502,38.6177105 79.8278103,37.2414874 79.8278103,35.5487949 C79.8278103,33.8568307 81.2067722,32.4802434 82.9028334,32.4802434 C84.5988946,32.4802434 85.9778565,33.8564665 85.9778565,35.5487949 C85.9778565,37.2414874 84.5985296,38.6177105 82.9028334,38.6177105 Z M113.438502,54.8093632 L117.944303,65.540553 L108.933066,65.540553 L113.438502,54.8093632 Z M109.424223,75.5182615 C109.528585,75.6074848 109.492825,75.576894 109.500488,75.5838133 C109.500853,75.5838133 109.45524,75.5452106 109.424223,75.5182615 Z M117.442929,75.5270018 C117.435996,75.5350137 117.42286,75.5142556 117.42286,75.5142556 C107.094694,75.4891274 110.56308,75.9680196 107.547901,74.2017634 C106.222215,73.4836073 104.936667,72.9042024 104.553886,71.0035651 L122.323119,71.0035651 C121.795107,73.6303704 119.658245,73.6300062 117.442929,75.5270018 Z" id="Shape"></path>
                    <path d="M108.263743,111 L56.7355273,111 C55.224422,111 54,112.119 54,113.5 C54,114.881 55.224422,116 56.7355273,116 L108.264473,116 C109.775578,116 111,114.881 111,113.5 C111,112.119 109.775213,111 108.263743,111 Z" id="Shape"></path>
                    <path d="M108.263743,122 L56.7355273,122 C55.224422,122 54,123.119 54,124.5 C54,125.881 55.224422,127 56.7355273,127 L108.264473,127 C109.775578,127 111,125.881 111,124.5 C111,123.119 109.775213,122 108.263743,122 Z" id="Shape"></path>
                    <path d="M108.263743,133 L56.7355273,133 C55.224422,133 54,134.119 54,135.5 C54,136.881 55.224422,138 56.7355273,138 L108.264473,138 C109.775578,138 111,136.881 111,135.5 C111,134.119 109.775213,133 108.263743,133 Z" id="Shape"></path>
                    <path d="M155.268806,133.058641 C156.777316,133.058641 157.999636,131.832551 157.999636,130.319388 L157.999636,9.15239033 C158,4.10559159 153.906668,0 148.875751,0 C142.960045,0 21.5600852,0 15.5893984,0 C6.93303129,0 0,7.18962463 0,15.4968643 C0,24.792061 0.000364110671,162.511448 0.000364110671,171.473187 C0.000364110671,179.823524 7.15149769,187 15.5893984,187 L102.447635,187 C103.956145,187 105.178465,185.773911 105.178465,184.260748 C105.178465,182.747584 103.956145,181.521495 102.447635,181.521495 C102.410496,181.521495 15.6483843,181.447353 15.5893984,181.447353 C7.64413943,181.447353 2.34305217,172.321624 7.53963967,165.505269 C9.29392488,163.203201 11.9945337,161.663741 15.078187,161.499021 C15.5238585,161.476376 25.8507653,161.485872 25.8886328,161.485872 L25.8886328,172.849022 C25.8886328,175.869869 29.2198814,177.709917 31.7661073,176.088644 L37.9829329,172.126955 L44.1065462,176.029477 C46.6971936,177.677046 50.0768688,175.803397 50.0768688,172.737626 L50.0768688,161.485142 L138.753838,161.485142 L138.753838,181.520399 L115.192601,181.520399 C113.68409,181.520399 112.461771,182.746489 112.461771,184.259652 C112.461771,185.772815 113.68409,186.998904 115.192601,186.998904 C119.092226,186.998904 144.00395,186.998904 148.273876,186.998904 C153.636862,186.998904 158,182.622309 158,177.242783 C158,173.079849 158,146.070455 158,143.102201 C158,141.589038 156.77768,140.362949 155.26917,140.362949 C153.760659,140.362949 152.53834,141.589038 152.53834,143.102201 L152.53834,151.741073 C152.53834,153.651245 151.279245,155.272517 149.550084,155.813428 C148.520015,156.135564 21.6605797,156.008098 19.2017404,156.005541 L19.2017404,34.2289683 C19.2017404,32.7158052 17.9794208,31.4897158 16.4709103,31.4897158 C14.9623998,31.4897158 13.7400803,32.7158052 13.7400803,34.2289683 L13.7400803,156.117668 C10.6152825,156.497146 7.7420852,157.82477 5.46348062,159.788266 C5.78644679,12.2353277 4.39117469,14.5797625 6.93849295,10.3817668 C8.4277056,7.93506653 10.9094839,6.17756215 13.7393521,5.65381708 L13.7393521,21.4450597 C13.7393521,22.9582227 14.9616716,24.1843121 16.4701821,24.1843121 C17.9786926,24.1843121 19.2010121,22.9582227 19.2010121,21.4450597 L19.2010121,5.47887016 L148.875751,5.47887016 C150.894744,5.47887016 152.537976,7.12680444 152.537976,9.15239033 L152.537976,130.319388 C152.537976,131.832551 153.760295,133.058641 155.268806,133.058641 Z M144.215134,161.485507 C147.060659,161.290472 149.479446,162.010348 152.537248,160.501933 L152.537248,177.243878 C152.537248,179.602192 150.624574,181.52113 148.273148,181.52113 L144.21477,181.52113 L144.21477,161.485507 L144.215134,161.485507 Z M31.3502929,161.485507 L44.6148447,161.485507 L44.6148447,169.862506 C41.0141542,167.760952 40.1290012,166.491765 37.9829329,166.491765 C35.8335876,166.491765 34.9429729,167.764604 31.3502929,169.862141 L31.3502929,161.485507 Z" id="Shape"></path>
                </g>
            </g>
        </g>
    </g>
</svg>