<?xml version="1.0" encoding="UTF-8"?>
<svg width="216px" height="230px" viewBox="0 0 216 230" version="1.1" xmlns="http://www.w3.org/2000/svg" xmlns:xlink="http://www.w3.org/1999/xlink">
    <!-- Generator: Sketch 50.2 (55047) - http://www.bohemiancoding.com/sketch -->
    <title>icon 2</title>
    <desc>Created with Sketch.</desc>
    <defs></defs>
    <g id="Page-1" stroke="none" stroke-width="1" fill="none" fill-rule="evenodd">
        <g id="INDEX" transform="translate(-965.000000, -1670.000000)">
            <g id="USÅUGI" transform="translate(-11.000000, 1460.000000)">
                <g id="icon-2" transform="translate(976.000000, 210.000000)">
                    <circle id="Oval-2" fill="#F22686" cx="147.5" cy="161.5" r="68.5"></circle>
                    <rect id="Rectangle-5" fill="#272C44" x="0" y="6" width="158" height="187" rx="17"></rect>
                    <g id="125468" transform="translate(24.000000, 0.000000)" fill="#D2D2D2" fill-rule="nonzero">
                        <path d="M146.177106,71.372392 L146.177106,68.4487001 L151.87905,68.4487001 C153.31041,68.4487001 154.470842,67.2936699 154.470842,65.868972 L154.470842,57.4418602 L157.408207,57.4418602 C158.839568,57.4418602 160,56.2868299 160,54.862132 L160,46.6070021 C160,45.6813956 159.501685,44.8263017 158.694082,44.3671101 L81.2858747,0.339750193 C80.4889849,-0.113250064 79.5106695,-0.113250064 78.7141253,0.339750193 L1.30591793,44.3671101 C0.498315335,44.8263017 0,45.6810516 0,46.6070021 L0,54.862132 C0,56.2868299 1.16043197,57.4418602 2.59179266,57.4418602 L5.52915767,57.4418602 L5.52915767,65.868972 C5.52915767,67.2936699 6.68958963,68.4487001 8.12095032,68.4487001 L13.8228942,68.4487001 L13.8228942,71.372392 C13.8228942,73.3766688 14.9408207,75.1243486 16.587473,76.0348206 L16.587473,123.826864 L8.12095032,123.826864 C6.68958963,123.826864 5.52915767,124.981894 5.52915767,126.406592 L5.52915767,134.833704 L2.59179266,134.833704 C1.16043197,134.833704 0,135.988734 0,137.413432 L0,148.420272 C0,149.84497 1.16043197,151 2.59179266,151 L157.408207,151 C158.839568,151 160,149.84497 160,148.420272 L160,137.413432 C160,135.988734 158.839568,134.833704 157.408207,134.833704 L154.470842,134.833704 L154.470842,126.406592 C154.470842,124.981894 153.31041,123.826864 151.87905,123.826864 L143.412527,123.826864 L143.412527,76.0348206 C145.059179,75.1243486 146.177106,73.3766688 146.177106,71.372392 Z M140.993521,71.372392 C140.993521,71.467326 140.916112,71.5443739 140.820734,71.5443739 L129.762419,71.5443739 C129.667041,71.5443739 129.589633,71.467326 129.589633,71.372392 L129.589633,68.4487001 L140.993521,68.4487001 L140.993521,71.372392 Z M115.766739,123.826864 L115.766739,76.0348206 C117.413391,75.1243486 118.531317,73.3766688 118.531317,71.372392 L118.531317,68.4487001 L124.406048,68.4487001 L124.406048,71.372392 C124.406048,73.3766688 125.523974,75.1243486 127.170626,76.0348206 L127.170626,123.826864 L115.766739,123.826864 Z M104.708423,123.826864 L104.708423,76.7038301 L110.583153,76.7038301 L110.583153,123.826864 L104.708423,123.826864 Z M88.1209503,123.826864 L88.1209503,76.0348206 C89.7676026,75.1243486 90.8855292,73.3766688 90.8855292,71.372392 L90.8855292,68.4487001 L96.7602592,68.4487001 L96.7602592,71.372392 C96.7602592,73.3766688 97.8781857,75.1243486 99.524838,76.0348206 L99.524838,123.826864 L88.1209503,123.826864 Z M77.062635,123.826864 L77.062635,76.7038301 L82.937365,76.7038301 L82.937365,123.826864 L77.062635,123.826864 Z M60.475162,123.826864 L60.475162,76.0348206 C62.1218143,75.1243486 63.2397408,73.3766688 63.2397408,71.372392 L63.2397408,68.4487001 L69.1144708,68.4487001 L69.1144708,71.372392 C69.1144708,73.3766688 70.2323974,75.1243486 71.8790497,76.0348206 L71.8790497,123.826864 L60.475162,123.826864 Z M49.4168467,123.826864 L49.4168467,76.7038301 L55.2915767,76.7038301 L55.2915767,123.826864 L49.4168467,123.826864 Z M32.8293737,123.826864 L32.8293737,76.0348206 C34.4760259,75.1243486 35.5939525,73.3766688 35.5939525,71.372392 L35.5939525,68.4487001 L41.4686825,68.4487001 L41.4686825,71.372392 C41.4686825,73.3766688 42.5866091,75.1243486 44.2332613,76.0348206 L44.2332613,123.826864 L32.8293737,123.826864 Z M58.0561555,68.4487001 L58.0561555,71.372392 C58.0561555,71.467326 57.9787473,71.5443739 57.8833693,71.5443739 L46.825054,71.5443739 C46.729676,71.5443739 46.6522678,71.467326 46.6522678,71.372392 L46.6522678,68.4487001 L58.0561555,68.4487001 Z M85.7019438,68.4487001 L85.7019438,71.372392 C85.7019438,71.467326 85.6245356,71.5443739 85.5291577,71.5443739 L74.4708423,71.5443739 C74.3754644,71.5443739 74.2980562,71.467326 74.2980562,71.372392 L74.2980562,68.4487001 L85.7019438,68.4487001 Z M113.347732,68.4487001 L113.347732,71.372392 C113.347732,71.467326 113.270324,71.5443739 113.174946,71.5443739 L102.116631,71.5443739 C102.021253,71.5443739 101.943844,71.467326 101.943844,71.372392 L101.943844,68.4487001 L113.347732,68.4487001 Z M5.18358531,48.1039323 L80,5.550801 L154.816415,48.1039323 L154.816415,52.2824039 L5.18358531,52.2824039 L5.18358531,48.1039323 Z M10.712743,57.4418602 L149.287257,57.4418602 L149.287257,63.2892439 L10.712743,63.2892439 L10.712743,57.4418602 Z M30.4103672,68.4487001 L30.4103672,71.372392 C30.4103672,71.467326 30.332959,71.5443739 30.237581,71.5443739 L19.1792657,71.5443739 C19.0838877,71.5443739 19.0064795,71.467326 19.0064795,71.372392 L19.0064795,68.4487001 L30.4103672,68.4487001 Z M21.7710583,76.7038301 L27.6457883,76.7038301 L27.6457883,123.826864 L21.7710583,123.826864 L21.7710583,76.7038301 Z M154.816415,145.840544 L5.18358531,145.840544 L5.18358531,139.99316 L154.816415,139.99316 L154.816415,145.840544 Z M149.287257,134.833704 L10.712743,134.833704 L10.712743,128.98632 L149.287257,128.98632 L149.287257,134.833704 Z M132.354212,123.826864 L132.354212,76.7038301 L138.228942,76.7038301 L138.228942,123.826864 L132.354212,123.826864 Z" id="Shape"></path>
                    </g>
                </g>
            </g>
        </g>
    </g>
</svg>