<?xml version="1.0" encoding="UTF-8"?>
<svg width="308px" height="201px" viewBox="0 0 308 201" version="1.1" xmlns="http://www.w3.org/2000/svg" xmlns:xlink="http://www.w3.org/1999/xlink">
    <!-- Generator: Sketch 50.2 (55047) - http://www.bohemiancoding.com/sketch -->
    <title>logo</title>
    <desc>Created with Sketch.</desc>
    <defs></defs>
    <g id="Page-1" stroke="none" stroke-width="1" fill="none" fill-rule="evenodd">
        <g id="INDEX-Copy" transform="translate(-33.000000, -42.000000)" fill="#FFFFFF">
            <g id="OVALS" transform="translate(-697.000000, -226.000000)">
                <g id="Group-4" transform="translate(543.000000, 0.000000)">
                    <g id="logo" transform="translate(187.000000, 268.000000)">
                        <g id="Group-2" transform="translate(0.000000, 144.000000)">
                            <g id="Group">
                                <polygon id="Fill-1" points="14.8311387 17.1179444 12.9923631 17.1179444 12.9923631 0.163611111 15.1262508 0.163611111 21.3009047 13.1933889 27.4322203 0.163611111 29.4753043 0.163611111 29.4753043 17.1179444 27.6365287 17.1179444 27.6365287 3.78627778 22.3926132 15.0511667 20.165858 15.0511667 14.8311387 3.71661111"></polygon>
                                <path d="M39.5082912,14.0749889 L39.5082912,11.0096556 C39.5082912,11.0096556 38.4186464,11.1722111 38.3959455,11.1722111 C34.9454037,11.6366556 33.921798,12.1939889 33.921798,13.9356556 C33.921798,15.3289889 34.7844334,15.9095444 35.942181,15.9095444 C37.0999286,15.9095444 38.7137586,15.1896556 39.5082912,14.0749889 M35.7626373,17.3957667 C33.7628914,17.3957667 32.0603215,16.3275444 32.0603215,14.0053222 C32.0603215,10.7309889 35.1497121,10.2897667 38.2824408,9.82532222 L39.5082912,9.68598889 L39.5082912,8.26943333 C39.5082912,6.75998889 38.7818614,5.97043333 37.0999286,5.97043333 C35.7626373,5.97043333 34.3077138,6.31876667 33.3109365,6.80643333 L32.7867513,5.32021111 C33.7174896,4.80721111 35.3313195,4.36598889 37.0565905,4.36598889 C39.4628894,4.36598889 41.3470668,5.18087778 41.3470668,7.96754444 L41.3470668,17.1171 L39.8261043,17.1171 L39.5536931,15.7469889 C38.4867492,16.9777667 37.0338895,17.3957667 35.7626373,17.3957667" id="Fill-2"></path>
                                <path d="M52.6059042,11.2651 L52.6059042,10.3362111 C52.6059042,7.96754444 51.6070631,5.99365556 49.0872595,5.99365556 C46.4766522,5.99365556 45.4757474,8.66421111 45.4757474,10.8238778 C45.4757474,12.9603222 46.5674559,15.4915444 49.0645586,15.4915444 C51.6751659,15.4915444 52.6059042,13.4944333 52.6059042,11.2651 Z M46.0226336,21.0902111 L48.2927269,21.0902111 C52.1064836,21.0902111 52.5378014,19.3021 52.5378014,16.1649889 L52.5378014,15.0735444 C51.7432687,16.2578778 50.6990258,17.1171 48.7921474,17.1171 C45.2054,17.1171 43.5709328,13.7963222 43.5709328,10.9399889 C43.5709328,7.41021111 45.2260372,4.36598889 48.928353,4.36598889 C50.5401192,4.36598889 51.6751659,5.06265556 52.6059042,6.34198889 L52.6059042,4.66787778 L54.3992779,4.66787778 L54.3992779,16.2114333 C54.3992779,19.4414333 53.9225583,22.8086556 48.247325,22.8086556 L46.2723438,22.8086556 L46.0226336,21.0902111 Z" id="Fill-3"></path>
                                <path d="M61.7527292,15.7016 C64.2498319,15.7016 65.4075794,13.5419333 65.4075794,10.8692667 C65.4075794,8.19871111 64.3199984,6.03904444 61.7300283,6.03904444 C59.2556266,6.03904444 58.3475893,8.54704444 58.3475893,10.8017111 C58.3475893,13.2632667 59.2329256,15.7016 61.7527292,15.7016 M61.6392246,17.3968222 C58.3475893,17.3968222 56.4407109,14.6333778 56.4407109,10.7531556 C56.4407109,7.22337778 58.4837949,4.36704444 61.5711218,4.36704444 C63.182888,4.36704444 64.7719533,5.1566 65.4075794,6.48026667 L65.4075794,0.210266667 L67.2711197,0.00126666667 L67.2711197,17.1181556 L65.6139516,17.1181556 L65.3869422,15.1674889 C64.6811496,16.4447111 63.3190936,17.3968222 61.6392246,17.3968222" id="Fill-4"></path>
                                <path d="M76.9635926,14.0749889 L76.9635926,11.0096556 C76.9635926,11.0096556 75.8739478,11.1722111 75.8512469,11.1722111 C72.4007051,11.6366556 71.3770994,12.1939889 71.3770994,13.9356556 C71.3770994,15.3289889 72.2397348,15.9095444 73.3974824,15.9095444 C74.55523,15.9095444 76.16906,15.1896556 76.9635926,14.0749889 M73.2179387,17.3957667 C71.2181928,17.3957667 69.5156229,16.3275444 69.5156229,14.0053222 C69.5156229,10.7309889 72.6050135,10.2897667 75.7377422,9.82532222 L76.9635926,9.68598889 L76.9635926,8.26943333 C76.9635926,6.75998889 76.2371628,5.97043333 74.55523,5.97043333 C73.2179387,5.97043333 71.7630152,6.31876667 70.7662379,6.80643333 L70.2420527,5.32021111 C71.172791,4.80721111 72.7866209,4.36598889 74.5118919,4.36598889 C76.9181908,4.36598889 78.8023682,5.18087778 78.8023682,7.96754444 L78.8023682,17.1171 L77.2814057,17.1171 L77.0089945,15.7469889 C75.9420506,16.9777667 74.4891909,17.3957667 73.2179387,17.3957667" id="Fill-5"></path>
                                <path d="M83.5910269,12.2402222 C83.5910269,14.9593333 83.6591297,15.7953333 84.9303819,15.7953333 C85.2027931,15.7953333 85.3616997,15.77 85.929223,15.7235556 L86.0427276,17.2097778 C85.4071015,17.328 84.9757838,17.3491111 84.7941763,17.3491111 C81.7976532,17.3491111 81.7295504,15.9346667 81.7295504,11.799 L81.7295504,0.209 L83.5910269,0 L83.5910269,12.2402222 Z" id="Fill-6"></path>
                                <path d="M89.0617454,9.91778889 L95.5542122,9.91778889 C95.5542122,7.27045556 94.2623228,5.92356667 92.4462481,5.92356667 C90.6074725,5.92356667 89.2660538,7.47945556 89.0617454,9.91778889 M92.6732575,17.3953444 C89.197951,17.3953444 87.0867642,14.8641222 87.0867642,10.8699 C87.0867642,7.15434444 89.2660538,4.46056667 92.4462481,4.36767778 C95.4654722,4.36767778 97.3496497,6.71312222 97.3496497,10.3822333 C97.3496497,10.5680111 97.3269487,11.0324556 97.3269487,11.2414556 L88.9936426,11.2414556 C88.9936426,14.0513444 90.6074725,15.7697889 92.7392965,15.7697889 C94.4666312,15.7697889 95.7378834,15.1195667 96.6005189,14.5157889 L97.1680422,15.9091222 C96.1692012,16.7936778 94.6255377,17.3953444 92.6732575,17.3953444" id="Fill-7"></path>
                                <path d="M109.402607,9.66213333 L109.402607,17.1185778 L107.54113,17.1185778 L107.54113,10.8696889 C107.54113,7.6418 107.404925,5.99302222 105.157532,5.99302222 C103.114448,5.99302222 101.661589,7.50246667 101.364413,8.61713333 L101.364413,17.1185778 L99.5050001,17.1185778 L99.5050001,7.68824444 L99.4595982,4.66935556 L101.069301,4.66935556 L101.230271,6.50391111 C102.181646,5.18024444 103.88628,4.36746667 105.566149,4.36746667 C108.244859,4.36746667 109.402607,6.1788 109.402607,9.66213333" id="Fill-8"></path>
                                <path d="M118.937205,14.0749889 L118.937205,11.0096556 C118.937205,11.0096556 117.84756,11.1722111 117.824859,11.1722111 C114.374318,11.6366556 113.350712,12.1939889 113.350712,13.9356556 C113.350712,15.3289889 114.213347,15.9095444 115.371095,15.9095444 C116.528843,15.9095444 118.142673,15.1896556 118.937205,14.0749889 M115.191551,17.3957667 C113.191805,17.3957667 111.489235,16.3275444 111.489235,14.0053222 C111.489235,10.7309889 114.578626,10.2897667 117.711355,9.82532222 L118.937205,9.68598889 L118.937205,8.26943333 C118.937205,6.75998889 118.210775,5.97043333 116.528843,5.97043333 C115.191551,5.97043333 113.736628,6.31876667 112.73985,6.80643333 L112.215665,5.32021111 C113.146404,4.80721111 114.760234,4.36598889 116.485504,4.36598889 C118.891803,4.36598889 120.775981,5.18087778 120.775981,7.96754444 L120.775981,17.1171 L119.255018,17.1171 L118.982607,15.7469889 C117.915663,16.9777667 116.462803,17.3957667 115.191551,17.3957667" id="Fill-9"></path>
                                <path d="M130.490329,15.5388333 L133.963572,15.5388333 C136.848654,15.5388333 138.346916,14.5402778 138.346916,12.2645 C138.346916,10.1280556 137.005497,8.98805556 134.531095,8.98805556 L130.490329,8.98805556 L130.490329,15.5388333 Z M130.490329,7.48072222 L134.417591,7.48072222 C135.961254,7.48072222 137.620486,7.08383333 137.620486,4.69194444 C137.620486,2.1375 135.779647,1.78916667 133.078236,1.78916667 L130.490329,1.78916667 L130.490329,7.48072222 Z M128.538049,0.163611111 L133.373348,0.163611111 C137.368712,0.163611111 139.66357,1.3015 139.66357,4.29716667 C139.66357,5.92272222 138.982542,7.48072222 137.300609,8.03594444 C139.389095,8.5025 140.342534,10.4763889 140.342534,12.2877222 C140.342534,15.2601667 138.642028,17.1179444 134.326787,17.1179444 L128.538049,17.1179444 L128.538049,0.163611111 Z" id="Fill-10"></path>
                                <path d="M143.974064,9.91778889 L150.466531,9.91778889 C150.466531,7.27045556 149.174642,5.92356667 147.358567,5.92356667 C145.519792,5.92356667 144.178373,7.47945556 143.974064,9.91778889 M147.585576,17.3953444 C144.11027,17.3953444 141.999083,14.8641222 141.999083,10.8699 C141.999083,7.15434444 144.178373,4.46056667 147.358567,4.36767778 C150.377791,4.36767778 152.261969,6.71312222 152.261969,10.3822333 C152.261969,10.5680111 152.239268,11.0324556 152.239268,11.2414556 L143.905962,11.2414556 C143.905962,14.0513444 145.519792,15.7697889 147.651615,15.7697889 C149.37895,15.7697889 150.650202,15.1195667 151.512838,14.5157889 L152.080361,15.9091222 C151.08152,16.7936778 149.537857,17.3953444 147.585576,17.3953444" id="Fill-11"></path>
                                <path d="M156.59826,12.2402222 C156.59826,14.9593333 156.664299,15.7953333 157.935551,15.7953333 C158.207962,15.7953333 158.366869,15.77 158.936456,15.7235556 L159.047897,17.2097778 C158.412271,17.328 157.980953,17.3491111 157.799345,17.3491111 C154.802822,17.3491111 154.734719,15.9346667 154.734719,11.799 L154.734719,0.209 L156.59826,0 L156.59826,12.2402222 Z M158.548476,7.59577778 L153.486168,11.6132222 L153.486168,9.96444444 L158.548476,5.947 L158.548476,7.59577778 Z" id="Fill-12"></path>
                                <polygon id="Fill-13" points="160.612816 15.5388333 166.424255 6.17816667 160.546777 6.17816667 160.546777 4.66872222 168.56227 4.66872222 168.56227 6.17816667 162.680665 15.5852778 168.787216 15.5852778 168.787216 17.1179444 160.612816 17.1179444"></polygon>
                                <path d="M177.59621,14.0749889 L177.59621,11.0096556 C177.59621,11.0096556 176.506565,11.1722111 176.483864,11.1722111 C173.031259,11.6366556 172.01178,12.1939889 172.01178,13.9356556 C172.01178,15.3289889 172.874416,15.9095444 174.0301,15.9095444 C175.187847,15.9095444 176.799614,15.1896556 177.59621,14.0749889 M173.850556,17.3957667 C171.85081,17.3957667 170.150304,16.3275444 170.150304,14.0053222 C170.150304,10.7309889 173.237631,10.2897667 176.368296,9.82532222 L177.59621,9.68598889 L177.59621,8.26943333 C177.59621,6.75998889 176.867716,5.97043333 175.187847,5.97043333 C173.850556,5.97043333 172.395633,6.31876667 171.398855,6.80643333 L170.87467,5.32021111 C171.805408,4.80721111 173.419238,4.36598889 175.144509,4.36598889 C177.550808,4.36598889 179.437049,5.18087778 179.437049,7.96754444 L179.437049,17.1171 L177.911959,17.1171 L177.641612,15.7469889 C176.574668,16.9777667 175.121808,17.3957667 173.850556,17.3957667" id="Fill-14"></path>
                                <polygon id="Fill-15" points="181.749862 11.2182333 187.40033 11.2182333 187.40033 9.59267778 181.749862 9.59267778"></polygon>
                                <path d="M191.941342,7.57276667 L195.891305,7.61921111 C198.887828,7.64243333 199.750463,6.64387778 199.750463,4.62354444 C199.750463,2.85865556 198.887828,1.90443333 196.345323,1.90443333 L191.941342,1.90443333 L191.941342,7.57276667 Z M200.229247,17.1171 L197.981854,11.8456556 C197.550537,10.8471 197.14192,9.89498889 196.799342,9.31443333 C196.481529,9.33765556 195.27838,9.36087778 194.894527,9.36087778 C194.688155,9.36087778 191.941342,9.26798889 191.941342,9.26798889 L191.941342,17.1171 L189.989062,17.1171 L189.989062,0.162766667 L195.232978,0.162766667 C199.18294,0.162766667 201.682106,0.743322222 201.682106,4.5771 C201.682106,6.6671 200.681202,8.31587778 198.549378,8.89643333 C198.524613,8.89643333 199.387248,10.3362111 199.775228,11.1954333 L202.453938,17.1171 L200.229247,17.1171 Z" id="Fill-16"></path>
                                <path d="M209.762813,5.94615556 C207.150142,5.94615556 205.947405,8.40982222 205.947405,10.9410444 C205.947405,13.4490444 207.150142,15.8409333 209.806151,15.8409333 C212.441523,15.8409333 213.463065,13.4490444 213.463065,10.9157111 C213.463065,8.27048889 212.507562,5.94615556 209.762813,5.94615556 M209.762813,17.3968222 C206.083611,17.3968222 204.040527,14.4940444 204.040527,10.9157111 C204.040527,7.36271111 206.129013,4.36704444 209.806151,4.36704444 C213.531168,4.36704444 215.394708,7.31626667 215.394708,10.8946 C215.394708,14.3314889 213.417663,17.3968222 209.762813,17.3968222" id="Fill-17"></path>
                                <path d="M219.885366,2.39378889 L218.023889,2.39378889 L218.023889,0.164455556 L219.885366,0.164455556 L219.885366,2.39378889 Z M219.885366,18.6979 C219.885366,21.7400111 219.227038,22.8082333 216.207814,22.8082333 L215.61759,22.8082333 L215.36788,21.0897889 L215.958104,21.0897889 C217.978487,21.0897889 218.023889,20.3699 218.023889,18.4889 L218.023889,4.66956667 L219.885366,4.66956667 L219.885366,18.6979 Z" id="Fill-18"></path>
                                <polygon id="Fill-19" points="224.289347 0.000211111111 224.289347 9.94143333 229.694232 4.66787778 232.214036 4.66787778 227.013459 9.84854444 232.577251 17.1171 230.191589 17.1171 225.608064 10.7309889 224.289347 11.8921 224.289347 17.1171 222.42787 17.1171 222.42787 0.209211111"></polygon>
                                <path d="M238.659037,5.94615556 C236.04843,5.94615556 234.84528,8.40982222 234.84528,10.9410444 C234.84528,13.4490444 236.04843,15.8409333 238.704439,15.8409333 C241.339811,15.8409333 242.361353,13.4490444 242.361353,10.9157111 C242.361353,8.27048889 241.407914,5.94615556 238.659037,5.94615556 M238.659037,17.3968222 C234.98355,17.3968222 232.940466,14.4940444 232.940466,10.9157111 C232.940466,7.36271111 235.026888,4.36704444 238.704439,4.36704444 C242.427392,4.36704444 244.290932,7.31626667 244.290932,10.8946 C244.290932,14.3314889 242.313887,17.3968222 238.659037,17.3968222" id="Fill-20"></path>
                                <polygon id="Fill-21" points="247.217289 4.66893333 249.920764 14.5869333 253.144296 4.66893333 255.323586 4.66893333 258.410913 14.5404889 261.02152 4.66893333 262.907761 4.66893333 259.273548 17.1181556 257.434773 17.1181556 254.188539 6.59637778 250.804036 17.1181556 248.921923 17.1181556 245.28771 4.66893333"></polygon>
                                <path d="M272.528829,13.7741556 C272.460727,16.1196 270.828323,17.3968222 268.510764,17.3968222 C266.647224,17.3968222 265.014821,16.7930444 264.288391,16.2357111 L264.76511,14.7727111 C265.217065,15.0746 266.558484,15.8177111 268.215652,15.8177111 L268.39726,15.8177111 C269.782017,15.8177111 270.667353,15.1210444 270.780858,13.8206 L270.780858,13.7044889 C270.780858,12.9149333 270.304138,12.1718222 268.942082,11.7770444 L267.328252,11.3104889 C264.901316,10.6138222 264.197587,9.38304444 264.172822,7.87571111 C264.172822,6.13193333 265.514241,4.39026667 268.238353,4.36704444 C269.804717,4.36704444 270.985166,4.69215556 271.915904,5.17982222 L271.484586,6.54993333 C270.828323,6.27126667 269.715977,5.87648889 268.372495,5.87648889 C267.035204,5.87648889 266.036363,6.59637778 266.036363,7.87571111 C266.036363,8.63993333 266.465617,9.24371111 267.784334,9.59415556 L269.466267,10.0564889 C271.441248,10.5927111 272.528829,11.6609333 272.528829,13.7277111 L272.528829,13.7741556 Z" id="Fill-22"></path>
                                <polygon id="Fill-23" points="276.567532 0.000211111111 276.567532 9.94143333 281.972418 4.66787778 284.492221 4.66787778 279.291644 9.84854444 284.855436 17.1171 282.471838 17.1171 277.88625 10.7309889 276.567532 11.8921 276.567532 17.1171 274.708119 17.1171 274.708119 0.209211111"></polygon>
                                <path d="M292.980306,14.0749889 L292.980306,11.0096556 C292.980306,11.0096556 291.892725,11.1722111 291.867961,11.1722111 C288.417419,11.6366556 287.397941,12.1939889 287.397941,13.9356556 C287.397941,15.3289889 288.260576,15.9095444 289.41626,15.9095444 C290.574008,15.9095444 292.185774,15.1896556 292.980306,14.0749889 M289.236716,17.3957667 C287.23697,17.3957667 285.536464,16.3275444 285.536464,14.0053222 C285.536464,10.7309889 288.623791,10.2897667 291.754456,9.82532222 L292.980306,9.68598889 L292.980306,8.26943333 C292.980306,6.75998889 292.253877,5.97043333 290.574008,5.97043333 C289.236716,5.97043333 287.779729,6.31876667 286.785015,6.80643333 L286.26083,5.32021111 C287.191568,4.80721111 288.805398,4.36598889 290.530669,4.36598889 C292.936968,4.36598889 294.823209,5.18087778 294.823209,7.96754444 L294.823209,17.1171 L293.298119,17.1171 L293.027772,15.7469889 C291.960828,16.9777667 290.505905,17.3957667 289.236716,17.3957667" id="Fill-24"></path>
                                <polygon id="Fill-25" points="52.9707701 56.5260556 51.3961508 56.5260556 47.1613949 51.4551667 46.3359064 52.1792778 46.3359064 56.5260556 45.0791002 56.5260556 45.0791002 45.7319444 46.3359064 45.7319444 46.3359064 50.9675 50.8306912 45.7319444 52.4796044 45.7319444 48.1581722 50.7606111"></polygon>
                                <path d="M59.0511118,52.1203778 L57.4476004,46.9734889 L55.6686728,52.1203778 L59.0511118,52.1203778 Z M59.4700472,53.1104889 L55.2786295,53.1104889 L54.0197595,56.5262667 L52.7485073,56.5262667 L56.6819599,45.7321556 L58.1843489,45.7321556 L61.8990471,56.5262667 L60.6257311,56.5262667 L59.4700472,53.1104889 Z" id="Fill-26"></path>
                                <polygon id="Fill-27" points="70.0166944 56.5260556 64.149535 47.5812778 64.149535 56.5260556 62.9773414 56.5260556 62.9773414 45.7319444 64.349716 45.7319444 70.2478311 54.6915 70.2478311 45.7319444 71.403515 45.7319444 71.403515 56.5260556"></polygon>
                                <path d="M81.2563391,46.5014444 L80.8085116,47.4767778 C80.2162236,47.0038889 79.2896128,46.6196667 78.2061592,46.6196667 C75.6492086,46.6196667 74.4625689,48.7476667 74.4625689,51.1437778 C74.4625689,53.4364444 75.5026844,55.594 78.2783894,55.594 C79.3329509,55.594 80.2306697,55.1802222 80.8085116,54.7073333 L81.2130009,55.7565556 C80.5195906,56.3941111 79.5496417,56.6896667 78.1772671,56.6896667 C74.8670583,56.6896667 73.1190864,54.2048889 73.1190864,51.1437778 C73.1190864,47.9517778 74.9103964,45.5113333 78.162821,45.5113333 C79.5496417,45.5113333 80.5340367,45.8955556 81.2563391,46.5014444" id="Fill-28"></path>
                                <polygon id="Fill-29" points="88.4783314 51.5286333 83.7936843 51.5286333 83.7936843 55.4025222 88.9839431 55.4025222 88.8683747 56.5256333 82.5513241 56.5256333 82.5513241 45.7315222 88.7672524 45.7315222 88.6805761 46.8419667 83.7936843 46.8419667 83.7936843 50.4203 88.4783314 50.4203"></polygon>
                                <polygon id="Fill-30" points="91.899362 45.7323667 91.899362 55.4033667 96.5241612 55.4033667 96.451931 56.5264778 90.6425558 56.5264778 90.6425558 45.7323667"></polygon>
                                <path d="M102.851737,52.1203778 L101.248225,46.9734889 L99.4692977,52.1203778 L102.851737,52.1203778 Z M103.270672,53.1104889 L99.0792544,53.1104889 L97.8203845,56.5262667 L96.5491322,56.5262667 L100.482585,45.7321556 L101.984974,45.7321556 L105.699672,56.5262667 L104.426356,56.5262667 L103.270672,53.1104889 Z" id="Fill-31"></path>
                                <path d="M108.02012,50.4494333 L110.535796,50.4789889 C112.442675,50.4937667 112.993688,49.8583222 112.993688,48.5705444 C112.993688,47.4474333 112.442675,46.8415444 110.824717,46.8415444 L108.02012,46.8415444 L108.02012,50.4494333 Z M113.297055,56.5252111 L111.864833,53.1706556 C111.590358,52.5331 111.330329,51.9272111 111.113638,51.5577667 C110.911393,51.5725444 110.145753,51.5873222 109.90017,51.5873222 C109.770156,51.5873222 108.02012,51.5282111 108.02012,51.5282111 L108.02012,56.5252111 L106.77776,56.5252111 L106.77776,45.7332111 L110.116861,45.7332111 C112.630473,45.7332111 114.221602,46.1026556 114.221602,48.5409889 C114.221602,49.8731 113.585976,50.9223222 112.225984,51.2917667 C112.211538,51.2917667 112.760488,52.2079889 113.008134,52.7547667 L114.712768,56.5252111 L113.297055,56.5252111 Z" id="Fill-32"></path>
                                <polygon id="Fill-33" points="116.325772 56.5269 117.570196 56.5269 117.570196 45.7327889 116.325772 45.7327889"></polygon>
                                <path d="M125.098238,52.1203778 L123.494727,46.9734889 L121.715799,52.1203778 L125.098238,52.1203778 Z M125.517174,53.1104889 L121.325756,53.1104889 L120.066886,56.5262667 L118.795634,56.5262667 L122.729087,45.7321556 L124.231476,45.7321556 L127.946174,56.5262667 L126.672858,56.5262667 L125.517174,53.1104889 Z" id="Fill-34"></path>
                                <path d="M133.314738,50.4494333 L135.830414,50.4789889 C137.737293,50.4937667 138.288306,49.8583222 138.288306,48.5705444 C138.288306,47.4474333 137.737293,46.8415444 136.119335,46.8415444 L133.314738,46.8415444 L133.314738,50.4494333 Z M138.591673,56.5252111 L137.159451,53.1706556 C136.884976,52.5331 136.624947,51.9272111 136.408256,51.5577667 C136.206011,51.5725444 135.440371,51.5873222 135.194788,51.5873222 C135.064774,51.5873222 133.314738,51.5282111 133.314738,51.5282111 L133.314738,56.5252111 L132.072378,56.5252111 L132.072378,45.7332111 L135.411479,45.7332111 C137.925091,45.7332111 139.51622,46.1026556 139.51622,48.5409889 C139.51622,49.8731 138.880594,50.9223222 137.520602,51.2917667 C137.506156,51.2917667 138.055106,52.2079889 138.302752,52.7547667 L140.007386,56.5252111 L138.591673,56.5252111 Z" id="Fill-35"></path>
                                <path d="M146.810649,52.1203778 L145.207138,46.9734889 L143.42821,52.1203778 L146.810649,52.1203778 Z M147.229585,53.1104889 L143.038167,53.1104889 L141.779297,56.5262667 L140.508045,56.5262667 L144.441497,45.7321556 L145.943886,45.7321556 L149.658584,56.5262667 L148.385268,56.5262667 L147.229585,53.1104889 Z" id="Fill-36"></path>
                                <path d="M151.979032,55.4025222 L154.205788,55.4025222 C156.79163,55.4025222 158.322911,54.0281889 158.322911,51.2330778 C158.322911,47.8320778 156.401587,46.8419667 153.512377,46.8419667 L151.979032,46.8419667 L151.979032,55.4025222 Z M150.736672,45.7315222 L153.353471,45.7315222 C156.995939,45.7315222 159.654012,47.0340778 159.654012,51.2035222 C159.654012,54.7966333 157.400428,56.5256333 154.075773,56.5256333 L150.736672,56.5256333 L150.736672,45.7315222 Z" id="Fill-37"></path>
                                <path d="M169.173957,46.5014444 L168.72613,47.4767778 C168.133842,47.0038889 167.207231,46.6196667 166.121714,46.6196667 C163.566827,46.6196667 162.380187,48.7476667 162.380187,51.1437778 C162.380187,53.4364444 163.422366,55.594 166.196008,55.594 C167.250569,55.594 168.148288,55.1802222 168.72613,54.7073333 L169.130619,55.7565556 C168.437209,56.3941111 167.469324,56.6896667 166.094885,56.6896667 C162.784677,56.6896667 161.036705,54.2048889 161.036705,51.1437778 C161.036705,47.9517778 162.830078,45.5113333 166.080439,45.5113333 C167.469324,45.5113333 168.451655,45.8955556 169.173957,46.5014444" id="Fill-38"></path>
                                <polygon id="Fill-39" points="174.27073 52.0906111 174.27073 56.5260556 173.026306 56.5260556 173.026306 52.0906111 169.427176 45.7319444 170.74383 45.7319444 173.736226 50.9062778 176.84419 45.7319444 178.202119 45.7319444"></polygon>
                                <path d="M187.936898,48.6600556 C187.936898,47.3891667 186.997905,46.8719444 185.69776,46.8719444 L183.514343,46.8719444 L183.514343,50.8936111 C183.514343,50.8936111 184.874336,50.9062778 185.351055,50.9062778 C187.751163,50.9062778 187.936898,49.7388333 187.936898,48.6600556 Z M182.257537,56.5260556 L182.257537,45.7319444 L185.668868,45.7319444 C187.678933,45.7319444 189.210214,46.5468333 189.210214,48.6305 C189.210214,50.6402778 188.355833,52.0167222 185.235487,52.0167222 C184.800042,52.0167222 184.050911,51.9576111 183.514343,51.9132778 L183.514343,56.5260556 L182.257537,56.5260556 Z" id="Fill-40"></path>
                                <path d="M191.677392,50.4494333 L194.193069,50.4789889 C196.099947,50.4937667 196.648897,49.8583222 196.648897,48.5705444 C196.648897,47.4474333 196.099947,46.8415444 194.479926,46.8415444 L191.677392,46.8415444 L191.677392,50.4494333 Z M196.954328,56.5252111 L195.522105,53.1706556 C195.245566,52.5331 194.987601,51.9272111 194.768847,51.5577667 C194.566602,51.5725444 193.800962,51.5873222 193.555379,51.5873222 C193.427428,51.5873222 191.677392,51.5282111 191.677392,51.5282111 L191.677392,56.5252111 L190.432969,56.5252111 L190.432969,45.7332111 L193.774133,45.7332111 C196.287746,45.7332111 197.876811,46.1026556 197.876811,48.5409889 C197.876811,49.8731 197.241185,50.9223222 195.881192,51.2917667 C195.86881,51.2917667 196.41776,52.2079889 196.663343,52.7547667 L198.367977,56.5252111 L196.954328,56.5252111 Z" id="Fill-41"></path>
                                <path d="M205.172272,52.1203778 L203.56876,46.9734889 L201.789833,52.1203778 L205.172272,52.1203778 Z M205.591207,53.1104889 L201.399789,53.1104889 L200.140919,56.5262667 L198.869667,56.5262667 L202.80312,45.7321556 L204.305509,45.7321556 L208.021032,56.5262667 L206.74978,56.5262667 L205.591207,53.1104889 Z" id="Fill-42"></path>
                                <polygon id="Fill-43" points="222.004807 45.7323667 223.290505 45.7323667 219.662484 56.5264778 218.188987 56.5264778 215.704266 47.6830333 212.885223 56.5264778 211.411726 56.5264778 207.868317 45.7323667 209.154015 45.7323667 212.189749 55.1057 214.951008 46.1165889 216.426569 46.1165889 218.925735 55.1204778"></polygon>
                                <polygon id="Fill-44" points="231.161538 56.5260556 225.292315 47.5812778 225.292315 56.5260556 224.122185 56.5260556 224.122185 45.7319444 225.49456 45.7319444 231.390611 54.6915 231.390611 45.7319444 232.548359 45.7319444 232.548359 56.5260556"></polygon>
                                <polygon id="Fill-45" points="240.537023 51.5286333 235.852376 51.5286333 235.852376 55.4025222 241.040571 55.4025222 240.922939 56.5256333 234.607953 56.5256333 234.607953 45.7315222 240.823881 45.7315222 240.739268 46.8419667 235.852376 46.8419667 235.852376 50.4203 240.537023 50.4203"></polygon>
                                <path d="M247.382387,56.6890333 C244.04535,56.6890333 242.367544,54.1008111 242.367544,51.1452556 C242.367544,48.1137 244.016457,45.5107 247.411279,45.5107 C248.773335,45.5107 249.852661,45.8949222 250.663703,46.5599222 L250.203494,47.5500333 C249.623588,47.0771444 248.540134,46.6190333 247.514465,46.6190333 C244.839882,46.6190333 243.711027,48.7639222 243.711027,51.1452556 C243.711027,53.5392556 244.839882,55.5933667 247.514465,55.5933667 C248.39361,55.5933667 249.433726,55.2387 249.898063,54.9431444 L249.898063,52.0910333 L247.281264,52.0910333 L247.370004,51.0122556 L250.981516,51.0122556 L250.981516,55.6377 C249.72471,56.4230333 248.727933,56.6890333 247.382387,56.6890333" id="Fill-46"></path>
                                <path d="M253.794368,51.1442 C253.794368,53.6289778 254.952116,55.5944222 257.612253,55.5944222 C260.268262,55.5944222 261.411563,53.6289778 261.411563,51.1442 C261.411563,48.4525333 260.154757,46.6200889 257.612253,46.6200889 C255.063557,46.6200889 253.794368,48.4229778 253.794368,51.1442 M252.448822,51.1442 C252.448822,47.7875333 254.343318,45.5117556 257.612253,45.5117556 C260.87706,45.5117556 262.755046,47.7875333 262.755046,51.1442 C262.755046,54.3087556 260.992628,56.6879778 257.612253,56.6879778 C254.225686,56.6879778 252.448822,54.3087556 252.448822,51.1442" id="Fill-47"></path>
                                <polygon id="Fill-48" points="0 32.5299 307.496521 32.5299 307.496521 31.2632333 0 31.2632333"></polygon>
                            </g>
                        </g>
                        <g id="Group" transform="translate(35.000000, 0.000000)">
                            <path d="M73.8422532,78.7314251 C79.6624883,72.2279903 84.482007,66.9236329 88.3071561,62.8011312 C106.176188,43.3274233 120.653785,28.4110711 131.805533,17.9810341 L131.877466,17.7657598 C128.293504,19.9464879 124.381612,21.1304962 120.133327,21.3091739 C118.098043,21.4684768 115.385742,21.1348017 111.996423,20.3059959 C109.427988,24.0560732 106.470267,28.5273192 103.11903,33.7326504 C86.2295585,59.9595112 76.446655,74.9619731 73.916302,78.5096926 L73.8422532,78.7314251 Z M10.0650853,107.306928 C8.51640769,107.306928 7.05447295,107.162694 5.76390826,106.637425 C-5.8088603,101.912155 2.9204346,87.2562851 7.15602558,82.3437269 C10.5855425,78.3697644 13.8331111,75.4118963 14.6222596,76.266535 C14.6222596,76.266535 -7.46332191,98.5754047 11.3598814,103.257619 C18.5595398,105.048701 30.4560073,98.2158967 45.80738,85.4458287 C55.5416228,77.3149206 66.0565515,66.9279384 77.3394719,54.3193261 C91.1781336,38.5806263 101.464569,26.8438746 108.241091,19.0530998 C102.994205,16.8185532 96.1351714,15.7400292 87.659758,15.8218334 C84.6660711,15.8498191 81.5560218,16.4482815 78.3211473,17.6172206 C64.8992746,22.4372109 55.4358388,33.5259871 49.8927577,50.9890336 C47.1889189,59.4213256 47.7114919,65.3219926 51.4795176,68.6673543 C52.0126689,69.2529002 52.3257895,69.6167137 52.4252265,69.7631002 C51.9745867,70.6435718 51.2489085,70.7210706 50.2503076,69.9912909 C47.7686152,68.243264 46.5351739,64.9624846 46.5520993,60.153258 C46.5669091,55.3591007 47.8066974,49.8459273 50.260886,43.6180435 C55.038091,31.5196311 61.526881,22.753664 69.7293716,17.2706291 C76.0235191,13.0943088 82.552507,11.1826735 89.3311451,11.5421815 C92.3481045,11.6541241 95.2444702,12.123422 98.0244734,12.9479223 C103.326367,14.747615 107.314423,16.1382866 109.988643,17.1091734 C114.414645,11.5055849 117.124831,8.85125349 118.131894,9.12249903 C118.815259,9.26027455 119.016248,9.75540531 118.732747,10.6121968 C118.400586,11.6110693 117.509884,12.9737552 116.058528,14.6959492 L114.827202,16.4224486 C114.416761,16.9972308 113.966121,17.5741658 113.483746,18.148948 C116.236245,19.1241403 118.800449,19.4621209 121.176358,19.152126 C126.516333,18.5321361 130.741346,17.2038941 133.830239,15.173858 C138.108143,12.4161949 141.654022,9.09881887 144.455183,5.22388252 C145.7394,3.07759833 146.702034,1.36401536 147.338854,0.0788281386 C147.797957,-0.207486603 147.859311,0.285491411 147.516571,1.56852589 C147.12517,2.99364137 146.600482,4.2788286 145.934043,5.42408756 C143.934725,8.85986446 141.499578,12.3839038 138.637063,15.9832891 C135.207546,20.1746786 132.645458,23.2810859 130.950798,25.3068165 L122.659449,35.7540755 C109.290468,52.5411609 98.7501516,66.7923157 91.0808123,78.4580268 C85.9756769,86.1734556 82.8656276,91.5251733 82.2520804,95.2494177 C80.4812564,105.978686 98.2910491,106.021741 108.65788,104.021843 C113.843411,103.022971 113.820139,103.688168 115.309577,104.021843 C115.906199,104.155313 76.7809324,119.27187 75.8140668,100.913283 C75.4840207,94.6961629 81.5221709,84.0314769 84.7231945,79.1404462 C90.3805223,70.4261449 96.5181094,61.8130224 103.121146,53.3010789 C113.676273,39.7237325 121.679889,29.9890313 127.170078,24.0431567 L127.057947,24.0453095 C109.54435,42.0723745 98.1641083,53.985651 93.0039652,59.7054876 C76.6497603,77.9844235 65.2504775,90.7415751 58.8886283,97.8886799 C56.485216,100.577455 55.19042,101.546189 54.9957774,100.803493 C54.8053663,100.056491 54.985199,99.0899101 55.5437385,97.8929854 C55.9943783,96.9995973 56.6079255,95.9598227 57.3886113,94.7650506 C65.9782713,82.1499801 74.074978,70.0451094 81.6871939,58.4504388 C92.3650299,42.2575103 99.8799246,31.2419274 104.282654,25.3154275 L104.172639,25.3175802 C97.8404093,32.8392622 91.3410409,40.3867772 84.6766495,47.9579722 C74.510808,59.5052826 65.9148009,68.7599222 58.9034381,75.6809891 C50.0810532,84.4060541 41.3369486,91.6715598 32.6753554,97.4710478 C22.8522541,104.023996 15.3500535,107.306928 10.1772163,107.306928 L10.0650853,107.306928 Z" id="Fill-1"></path>
                            <path d="M107.663254,88.6485956 C104.481952,98.4216209 105.327481,103.323296 110.214636,103.32113 C116.537077,103.318964 126.072526,94.2520567 138.742773,76.2265431 L150.216597,59.9035114 C162.041316,43.0324797 173.411562,28.769321 184.354817,17.053387 C186.324899,15.010842 187.681972,13.6245973 188.430265,12.8903208 C187.521322,12.4679493 186.40311,12.2600126 185.065061,12.2730087 C178.966686,12.3336569 171.676115,14.9328658 163.17221,20.0706353 C155.09107,24.7795354 147.255133,31.0154707 139.647489,38.7957693 C133.458219,45.1291749 127.605047,52.3528096 122.071062,60.4840013 C115.391386,70.2830188 110.612035,79.5946846 107.737237,88.4233308 L107.663254,88.6485956 Z M140.786839,108.216306 C139.499522,108.216306 138.355944,108.287785 137.751391,107.761445 C127.091389,98.441115 150.043264,77.365863 149.43237,79.109499 C149.064565,80.1643446 128.467486,103.100197 141.475945,106.394694 C145.39497,107.388892 153.774159,97.2411469 159.468795,89.6752831 C164.852698,82.5924389 168.955626,74.8597925 171.78392,66.4860079 C173.058554,62.6131866 173.551075,59.1605708 173.257253,56.1216624 C172.961318,53.0935841 171.745871,51.882786 169.613025,52.480604 C168.122781,52.9332996 167.076439,53.1628963 166.478227,53.1650624 L164.679365,53.1758924 C163.873999,52.8856474 163.645706,52.2943274 164.000828,51.4084304 C164.7153,50.0741698 165.909609,49.4828498 167.590098,49.6171422 C168.262293,49.6128102 169.319204,49.829411 170.756602,50.2604464 C173.386196,49.5110079 176.423758,47.206376 179.862946,43.3573809 C184.458394,38.1871212 187.863761,32.0118341 190.08116,24.8423496 C191.522786,20.1811017 191.645388,16.76964 190.461648,14.6057986 C183.397256,23.2308401 173.872375,36.2138885 161.842616,53.6329199 C138.157245,87.9879633 120.663257,105.363675 109.665043,105.365841 C101.693821,105.368007 99.588455,99.6302531 103.321464,88.204564 C108.637726,71.9400145 120.29968,54.9671805 138.252367,37.2752321 C146.46245,29.2068545 154.778224,22.7499865 163.193348,17.8981299 C171.940342,12.9076488 179.653678,10.3799182 186.341809,10.312772 C187.90181,10.2976099 190.491241,10.9214201 190.491241,10.9214201 L192.653681,12.1993644 C192.653681,12.1993644 197.999536,16.8584463 194.408153,26.7765942 C192.004738,33.3980788 188.975631,39.1834846 184.342134,43.7689223 C180.693678,47.3276724 176.747173,49.7860908 172.502619,51.1376794 L172.432863,51.3586122 C178.60945,53.6914021 179.941157,60.0572979 176.415303,70.4931215 C173.005709,80.5412299 167.230748,87.9749673 161.140828,94.8845309 C155.336273,101.464861 147.631393,109.063215 140.903099,108.216306 L140.786839,108.216306 Z" id="Fill-2"></path>
                            <path d="M226.051251,29.3524137 C218.622336,40.2280455 212.098251,50.041747 206.478575,58.784902 L207.508137,58.780594 C208.947833,59.1726251 208.844243,60.3982607 210.541858,60.0945443 C231.848089,56.2883963 240.164922,34.1386395 231.65782,21.1025286 C231.65782,21.1025286 227.645276,27.0109972 226.051251,29.3524137 M211.569729,61.6454366 C214.106638,61.574354 213.825464,66.5630574 212.812814,71.0584909 C212.028486,74.5156882 210.004879,78.8107981 206.738608,83.9459746 C201.660562,91.8275228 198.711405,97.1479448 197.905936,99.8857004 C197.138521,102.479137 197.48946,103.773701 198.956639,103.771547 C200.802241,103.769393 204.723879,100.506057 210.711408,93.9858479 L215.277844,88.9949905 L220.315723,83.5604056 C220.393944,83.5582516 220.44891,83.6379502 220.480622,83.7865774 C220.579984,84.2367669 219.969012,85.2922352 218.639249,86.9508283 C215.98395,90.2744766 212.872009,93.8350667 209.303,97.6196745 C203.155224,104.150654 198.612043,107.420452 195.686141,107.422606 C192.064703,107.42476 191.115476,104.387596 192.832118,98.3261921 C193.876479,94.5502003 196.937683,88.7408165 202.003044,80.9174267 C204.034686,77.916881 205.512435,75.7413239 206.446864,74.3950632 C208.353774,71.5539148 209.57149,69.0875653 210.108469,67.0024769 C210.645448,64.9173884 210.463636,63.2092529 209.558805,61.8802244 L207.275587,61.8909945 C206.106495,61.4515751 205.108644,61.2038631 205.252402,61.0121556 C186.55961,86.1323019 148.032418,119.015525 136.37532,105.850174 C135.755892,105.150118 141.292696,105.699392 141.292696,105.699392 C152.247915,111.610015 180.160257,84.6503382 193.4896,67.9717845 C211.199763,45.8112576 230.101849,19.5322502 230.101849,19.5322502 C207.419345,-0.68750742 181.688745,11.1035816 177.426738,13.2554446 L158.79314,20.5101739 C158.79314,20.5101739 206.300991,-11.9551704 234.243354,17.5311684 C246.456457,30.4208061 233.809965,61.0250797 211.569729,61.6454366" id="Fill-3"></path>
                        </g>
                    </g>
                </g>
            </g>
        </g>
    </g>
</svg>